<svg width="22" height="22" viewBox="0 0 22 22" fill="none" xmlns="http://www.w3.org/2000/svg">
<path d="M20.0909 9.91948H12.0805V1.90909C12.0805 1.31234 11.5968 0.828571 11 0.828571C10.4032 0.828571 9.91948 1.31234 9.91948 1.90909V9.91948H1.90909C1.31234 9.91948 0.828571 10.4032 0.828571 11C0.828571 11.5968 1.31234 12.0805 1.90909 12.0805H9.91948V20.0909C9.91948 20.6877 10.4032 21.1714 11 21.1714C11.5968 21.1714 12.0805 20.6877 12.0805 20.0909V12.0805H20.0909C20.6877 12.0805 21.1714 11.5968 21.1714 11C21.1714 10.4032 20.6877 9.91948 20.0909 9.91948Z" fill="#0B0B0B" stroke="#0B0B0B" stroke-width="0.342857"/>
</svg>
