<svg width="16" height="16" viewBox="0 0 16 16" fill="none" xmlns="http://www.w3.org/2000/svg">
<path d="M5.58121 1.26832C5.409 1.0947 5.18982 1 4.93151 1C4.41487 1 4 1.41037 4 1.93123C4 2.19166 4.10959 2.42841 4.28963 2.60992L9.76908 8.00789L4.28963 13.3901C4.10959 13.5716 4 13.8162 4 14.0688C4 14.5896 4.41487 15 4.93151 15C5.18982 15 5.409 14.9053 5.58121 14.7317L11.6712 8.73394C11.8904 8.52875 11.9922 8.27621 12 8C12 7.72379 11.8904 7.48704 11.6712 7.27396L5.58121 1.26832Z" fill="#8A8A8A"/>
</svg>
