<svg width="200" height="200" viewBox="0 0 200 200" fill="none" xmlns="http://www.w3.org/2000/svg">
<path fill-rule="evenodd" clip-rule="evenodd" d="M61.0866 16.67H138.912C167.253 16.67 183.253 32.745 183.337 61.0867V138.92C183.337 167.253 167.253 183.337 138.912 183.337H61.0866C32.7449 183.337 16.6699 167.253 16.6699 138.92V61.0867C16.6699 32.745 32.7449 16.67 61.0866 16.67ZM100.412 148.837C104.003 148.837 106.995 146.17 107.328 142.587V57.67C107.662 55.0867 106.42 52.495 104.17 51.0867C101.828 49.67 98.9949 49.67 96.7533 51.0867C94.4949 52.495 93.2533 55.0867 93.4949 57.67V142.587C93.9199 146.17 96.9116 148.837 100.412 148.837ZM138.753 148.837C142.253 148.837 145.245 146.17 145.67 142.587V115.253C145.912 112.578 144.67 110.087 142.412 108.67C140.17 107.253 137.337 107.253 135.003 108.67C132.745 110.087 131.503 112.578 131.837 115.253V142.587C132.17 146.17 135.162 148.837 138.753 148.837ZM68.4949 142.587C68.1616 146.17 65.1699 148.837 61.5783 148.837C57.9949 148.837 54.9949 146.17 54.6699 142.587V85.0034C54.4199 82.4117 55.6616 79.8367 57.9199 78.42C60.1616 77.0034 63.0033 77.0034 65.2533 78.42C67.4949 79.8367 68.7533 82.4117 68.4949 85.0034V142.587Z" fill="#E69D49"/>
</svg>
