<svg width="9" height="12" viewBox="0 0 9 12" fill="none" xmlns="http://www.w3.org/2000/svg">
<path d="M7.12952 7.65001C7.41133 7.92274 7.43695 8.35249 7.21389 8.65377L7.13952 8.74001L4.22952 11.66C4.07952 11.81 3.88952 11.89 3.67952 11.89C3.51952 11.89 3.35952 11.8388 3.23024 11.7415L3.13952 11.66L0.229516 8.74001C0.0795162 8.59001 -0.000483684 8.39001 -0.000483667 8.20001C-0.00048365 8.00001 0.0795163 7.80001 0.229516 7.65001C0.502244 7.37729 0.931996 7.35249 1.23327 7.57563L1.31952 7.65001L2.90952 9.25001L2.90952 0.880013C2.90952 0.454753 3.25426 0.110014 3.67952 0.110014C4.10478 0.110014 4.44952 0.454755 4.44952 0.880014L4.44952 9.25001L6.03952 7.65001C6.33952 7.35001 6.82952 7.35001 7.12952 7.65001Z" fill="#37E391"/>
</svg>
